<?xml version="1.0" encoding="UTF-8"?>
<svg id="Layer_2" xmlns="http://www.w3.org/2000/svg" viewBox="0 0 32 32">
  <defs>
    <style>
      .cls-1 {
        fill: #2e2a33;
      }

      .cls-2 {
        fill: #f7f7f7;
      }
    </style>
  </defs>
  <g id="Layer_1-2" data-name="Layer_1">
    <g>
      <rect class="cls-2" width="32" height="32"/>
      <g id="Layer_1-3" data-name="Layer_1">
        <g id="Layer_1-2">
          <g id="Layer_1-2-2" data-name="Layer_1-2">
            <g id="Layer_2-2" data-name="Layer_2">
              <path class="cls-1" d="M24.46,19.74c-.01-.29-.05-.57-.1-.83-.15-.65-.41-1.12-.84-1.69-.27-.36-.65-.68-1.03-.97-.55-.42-1.05-.76-1.48-.99-.59-.32-1.57-.7-2.21-.86-.76-.19-1.5-.35-2.21-.52-.71-.16-1.36-.34-1.93-.53-.58-.19-1.04-.42-1.37-.69-.34-.27-.51-.61-.51-1.04s.13-.64.39-.89.63-.44,1.13-.58c.49-.14,1.09-.2,1.8-.2s1.31.1,1.79.3c.48.2.84.47,1.08.81.3.41.31.65.36,1.17,0,.09.02.2.02.2h4.94v-.35c-.02-1.04-.24-1.93-.68-2.67-.43-.74-1.04-1.36-1.8-1.85-.77-.49-1.65-.85-2.64-1.08-.99-.23-2.05-.35-3.19-.35s-2.24.11-3.26.33c-1.02.22-1.92.57-2.7,1.05-.78.48-1.39,1.1-1.83,1.86-.44.76-.66,1.66-.66,2.7s.17,1.74.51,2.41c.22.43.72,1.02,1.24,1.4,1.02.74,1.94.99,2.57,1.2-.19.11-.36.2-.53.3-1.03.59-1.73,1.01-2.47,1.74-.2.2-.38.41-.54.63-.5.7-.75,1.48-.75,2.35s.57,1.8,1.71,2.59c1.15.79,3.05,1.19,5.71,1.19,1,0,2.42-.15,3.56-.45s2.16-.71,3.03-1.24c.88-.52,1.58-1.16,2.09-1.9.51-.75.77-1.56.77-2.45s0-.06,0-.09h0ZM20.7,23.1c-.23.16-.57.23-1.02.23-.88,0-1.83-.11-2.86-.33-.39-.08-.76-.17-1.13-.28-.61-.17-1.2-.37-1.76-.59-.79-.31-1.46-.66-2.01-1.04-.07-.05-.15-.1-.22-.15-.56-.41-.86-.81-.88-1.19,0-.02,0-.04,0-.06,0-.2.05-.38.15-.55.1-.17.31-.35.64-.48.32-.12.76-.24,1.37-.31.5-.05.87-.06,1.51-.09.16,0,.27-.01.46-.02.53.12,1.05.33,1.47.53.38.17.71.35,1.04.5.5.22.95.43,1.36.66.16.09.32.17.47.26.53.31.95.65,1.26,1,.31.36.51.72.51,1.19s-.15.56-.38.72h0Z"/>
            </g>
          </g>
        </g>
      </g>
    </g>
  </g>
</svg>