<?xml version="1.0" encoding="UTF-8"?>
<svg id="Layer_2" xmlns="http://www.w3.org/2000/svg" viewBox="0 0 32 32">
  <defs>
    <style>
      .cls-1 {
        fill: #efefef;
      }

      .cls-2 {
        fill: #2e2a33;
      }
    </style>
  </defs>
  <g id="Layer_1-2" data-name="Layer_1">
    <g>
      <circle class="cls-1" cx="16" cy="16" r="16"/>
      <g id="Layer_1-3" data-name="Layer_1">
        <g id="Layer_1-2">
          <g id="Layer_1-2-2" data-name="Layer_1-2">
            <g id="Layer_2-2" data-name="Layer_2">
              <path class="cls-2" d="M27.81,20.72c-.02-.4-.07-.79-.14-1.14-.21-.89-.57-1.54-1.15-2.31-.37-.49-.89-.93-1.42-1.34-.75-.57-1.44-1.04-2.03-1.35-.81-.44-2.15-.96-3.03-1.18-1.04-.26-2.05-.49-3.03-.71-.98-.23-1.86-.47-2.65-.73-.79-.26-1.42-.58-1.88-.95-.46-.37-.69-.84-.69-1.43s.18-.88.53-1.23.87-.6,1.54-.79c.68-.19,1.5-.28,2.48-.28s1.79.14,2.45.41c.66.28,1.15.65,1.48,1.11.41.57.43.9.49,1.6.01.12.03.28.03.28h6.78v-.48c-.03-1.43-.34-2.64-.93-3.66-.6-1.01-1.42-1.86-2.48-2.53-1.06-.68-2.26-1.17-3.62-1.48-1.36-.32-2.82-.48-4.37-.48s-3.08.15-4.47.45c-1.4.3-2.63.79-3.7,1.44-1.07.66-1.91,1.51-2.52,2.55-.6,1.05-.91,2.28-.91,3.7s.23,2.39.69,3.31c.3.59.98,1.4,1.71,1.92,1.4,1.01,2.66,1.36,3.53,1.64-.26.15-.49.28-.72.41-1.41.81-2.38,1.39-3.38,2.39-.28.27-.53.56-.74.86-.68.96-1.02,2.03-1.02,3.22s.79,2.47,2.35,3.55c1.57,1.08,4.18,1.63,7.83,1.63,1.37,0,3.32-.21,4.88-.62s2.96-.98,4.16-1.69c1.21-.72,2.16-1.59,2.87-2.61.71-1.02,1.06-2.14,1.06-3.37s0-.08,0-.12h0ZM22.64,25.34c-.31.22-.78.32-1.4.32-1.21,0-2.52-.15-3.93-.46-.53-.11-1.04-.24-1.54-.38-.84-.23-1.65-.51-2.41-.81-1.08-.43-2-.9-2.76-1.42-.1-.07-.2-.14-.3-.21-.77-.57-1.17-1.11-1.21-1.64,0-.03,0-.05,0-.08,0-.27.07-.53.21-.75.14-.23.43-.49.88-.65.45-.17,1.04-.33,1.88-.42.68-.08,1.19-.08,2.07-.12.22-.01.38-.02.64-.02.73.17,1.44.46,2.02.73.52.24.98.49,1.43.68.68.3,1.3.6,1.87.9.23.12.44.24.64.36.72.43,1.3.89,1.73,1.38.43.49.7.98.7,1.63s-.21.77-.52.98h0Z"/>
            </g>
          </g>
        </g>
      </g>
    </g>
  </g>
</svg>