<?xml version="1.0" encoding="UTF-8"?>
<svg xmlns="http://www.w3.org/2000/svg" version="1.1" viewBox="0 0 526.3 613.8">
  <defs>
    <style>
      .cls-1 {
        fill: #2e2a33;
      }
    </style>
  </defs>
  <!-- Generator: Adobe Illustrator 28.7.1, SVG Export Plug-In . SVG Version: 1.2.0 Build 142)  -->
  <g>
    <g id="Layer_1">
      <g id="Layer_2">
        <path class="cls-1" d="M526.2,423.1c-.4-9.1-1.5-17.8-3.1-25.9-4.7-20.1-12.9-34.8-26.1-52.4-8.4-11.2-20.1-21.1-32.1-30.3-17-13-32.7-23.6-45.9-30.7-18.4-10-48.7-21.8-68.6-26.7-23.6-5.8-46.5-11-68.6-16.2-22.2-5.1-42.2-10.6-60.1-16.6-17.9-6-32.2-13.1-42.6-21.5-10.5-8.3-15.7-19.1-15.7-32.3s4-20,12.1-27.8c8.1-7.8,19.7-13.7,35-17.9,15.3-4.2,33.9-6.3,56.1-6.3s40.6,3.1,55.6,9.4c14.9,6.3,26.1,14.7,33.6,25.1,9.2,12.9,9.7,20.3,11.2,36.3.3,2.8.6,6.3.6,6.3h153.7v-10.8c-.6-32.3-7.6-59.9-21.1-83-13.5-23-32.2-42.2-56.1-57.4-24-15.3-51.3-26.5-82.1-33.6C331.2,3.6,298.2,0,262.9,0s-69.7,3.5-101.4,10.3c-31.7,6.9-59.7,17.8-83.9,32.7-24.2,15-43.3,34.3-57,57.9C6.9,124.6,0,152.5,0,184.8s5.3,54.2,15.7,74.9c6.7,13.3,22.3,31.7,38.7,43.6,31.7,23,60.2,30.9,79.9,37.2-5.8,3.3-11.2,6.3-16.4,9.3-32,18.3-53.9,31.5-76.7,54.2-6.3,6.2-11.9,12.8-16.7,19.5-15.5,21.7-23.2,46-23.2,72.9s17.8,56,53.3,80.5c35.6,24.5,94.7,36.9,177.5,36.9s75.2-4.7,110.7-14c35.5-9.3,67-22.1,94.3-38.4,27.4-16.3,49-36,65.1-59.2,16-23.2,24-48.6,24-76.3s0-1.9,0-2.8ZM409.1,527.6c-7.1,4.9-17.6,7.3-31.7,7.3-27.4,0-57-3.5-89-10.4-12-2.6-23.6-5.4-35-8.7-19.1-5.3-37.3-11.5-54.7-18.4-24.5-9.7-45.4-20.4-62.5-32.2-2.3-1.5-4.6-3.1-6.7-4.7-17.4-12.9-26.6-25.2-27.4-37.1-.1-.6-.1-1.2-.1-1.9,0-6.2,1.5-11.9,4.7-17.1,3.1-5.2,9.7-11,19.9-14.8,10.1-3.8,23.5-7.4,42.7-9.6,15.4-1.7,26.9-1.9,46.8-2.8,4.9-.3,8.5-.4,14.4-.5,16.5,3.8,32.7,10.4,45.8,16.5,11.7,5.4,22.2,11,32.4,15.4,15.4,6.7,29.5,13.5,42.4,20.4,5.1,2.7,9.9,5.4,14.5,8.1,16.4,9.7,29.5,20.1,39.3,31.2,9.7,11.1,15.9,22.3,15.9,36.9s-4.8,17.5-11.8,22.3Z"/>
      </g>
    </g>
  </g>
</svg>