<?xml version="1.0" encoding="UTF-8"?>
<svg xmlns="http://www.w3.org/2000/svg" version="1.1" viewBox="0 0 526.29368 613.79919">
  <!-- Generator: Adobe Illustrator 28.7.1, SVG Export Plug-In . SVG Version: 1.2.0 Build 142)  -->
  <g>
    <g id="Layer_2">
      <path d="M526.22953,423.06396c-.44908-9.10044-1.47397-17.75336-3.1404-25.89306-4.67853-20.12392-12.89435-34.78069-26.13437-52.4016-8.39312-11.17026-20.10279-21.13794-32.06087-30.28588-16.98525-12.99373-32.70583-23.57375-45.86614-30.72178-18.39356-9.99048-48.74892-21.78132-68.64134-26.69304-23.60418-5.82821-46.53021-11.02348-68.64212-16.15109-22.17528-5.06345-42.17167-10.57441-60.11672-16.5986-17.94583-5.9616-32.17387-13.14056-42.62153-21.5353-10.51025-8.33216-15.70201-19.09903-15.70201-32.30217,0-10.76687,4.03855-19.99561,12.11332-27.81611,8.07554-7.75477,19.73978-13.71481,34.99428-17.94426,15.25293-4.16686,33.90367-6.2808,56.07973-6.2808,22.11112,0,40.63355,3.13884,55.63065,9.41964,14.93373,6.28237,26.14968,14.67712,33.64784,25.12478,9.16459,12.88238,9.74197,20.25223,11.21595,36.33916.25661,2.75548.64154,6.2808.64154,6.2808h153.69037v-10.76687c-.64154-32.30217-7.62725-59.92582-21.08623-82.99768-13.45976-23.00927-32.17387-42.17246-56.07973-57.42539-23.97002-15.2545-51.33705-26.47045-82.1011-33.64784-30.8282-7.17896-63.89866-10.76687-99.14877-10.76687-35.89087,0-69.73117,3.45961-101.39259,10.31779-31.72479,6.92234-59.66842,17.81752-83.89427,32.74968-24.22663,14.99788-43.2615,34.28937-56.97788,57.87603C6.85819,124.59276,0,152.53561,0,184.83778c0,29.35423,5.30899,54.2257,15.70201,74.92214,6.66686,13.27624,22.26705,31.72873,38.67649,43.62034,31.67096,22.95135,60.19391,30.85429,79.93369,37.19925-5.76836,3.26871-11.21595,6.34496-16.40692,9.2929-32.04556,18.26659-53.90163,31.46974-76.71766,54.15668-6.2808,6.21665-11.8567,12.75407-16.66353,19.48395-15.51033,21.7262-23.20095,46.01698-23.20095,72.9365,0,29.09762,17.75258,55.95142,53.32347,80.49725,35.57088,24.5474,94.72686,36.85239,177.53208,36.85239,38.26299,0,75.17954-4.67853,110.74964-14.03558,35.50673-9.2929,66.97569-22.11112,94.27778-38.39052,27.36703-16.27939,49.03064-36.01996,65.05342-59.22013s24.03417-48.64572,24.03417-76.33196c0-.89815,0-1.85889-.06415-2.75704ZM409.13493,527.59695c-7.05065,4.87099-17.62506,7.30726-31.66064,7.30726-27.36703,0-57.04203-3.46117-89.02344-10.38351-11.98423-2.56302-23.64925-5.44837-34.9935-8.65293-19.09903-5.3185-37.30147-11.47256-54.66991-18.39334-24.48246-9.74197-45.37623-20.44469-62.48884-32.17387-2.30719-1.53812-4.55022-3.07625-6.66573-4.67853-17.4326-12.88238-26.59719-25.18737-27.36625-37.10901-.12831-.63997-.12831-1.21736-.12831-1.85889,0-6.21665,1.53812-11.92007,4.67853-17.11183,3.07703-5.19176,9.74197-10.9699,19.93224-14.81599,10.1269-3.78037,23.53186-7.44764,42.74906-9.56008,15.40207-1.69306,26.85458-1.90641,46.78605-2.803,4.93514-.25661,8.49944-.40381,14.43038-.4926,16.53601,3.84453,32.74137,10.43154,45.81621,16.45573,11.66346,5.38422,22.23943,10.95933,32.36554,15.38124,15.44618,6.72988,29.54591,13.52391,42.36413,20.38054,5.06345,2.69289,9.87028,5.38422,14.48466,8.1397,16.4077,9.74197,29.48176,20.12549,39.28789,31.21313,9.74119,11.08764,15.9241,22.32172,15.9241,36.87053,0,9.03628-4.83646,17.47861-11.82217,22.28544Z"/>
    </g>
  </g>
</svg>