<svg width="2005" height="320" viewBox="0 0 2005 320" fill="none" xmlns="http://www.w3.org/2000/svg">
<path d="M342.978 207.194C342.003 202.286 341.515 197.843 340.192 193.399C340.192 193.267 340.123 193.134 340.053 193.068C338.173 188.624 334.901 185.043 332.533 181.064C329.678 176.952 327.798 172.442 324.455 169.325C321.183 165.677 317.005 163.024 313.175 159.907C313.175 159.841 313.175 159.841 313.036 159.775C309.346 157.122 305.098 154.867 300.293 152.148C296.115 149.959 292.425 146.908 288.247 144.587C288.108 144.521 287.968 144.455 287.829 144.388C283.164 142.664 278.429 141.802 273.764 139.945C269.029 138.154 264.293 137.292 259.141 135.899C254.336 134.573 249.601 132.782 244.866 131.854C240.131 130.527 235.396 129.135 230.244 128.272C225.439 127.344 220.704 126.415 215.969 125.553L200.859 122.834C196.124 121.906 191.389 120.579 186.167 120.115C181.919 119.186 176.697 119.186 171.474 118.324C166.739 117.86 161.517 116.534 156.295 116.069L141.115 113.814C135.892 112.886 130.739 113.35 126.004 112.422C120.295 111.095 116.047 108.376 111.8 106.586C105.115 104.331 99.8925 102.54 99.8925 98.8923C99.8925 95.2447 103.235 91.2654 109.363 88.082C112.705 85.8271 117.927 84.5007 123.637 82.6437C127.885 80.853 132.62 78.5981 137.842 77.6696C142.577 76.8075 147.799 77.2718 153.439 76.3433C158.174 75.8791 163.397 75.0169 168.619 75.0169C173.354 74.5526 178.576 73.6242 183.799 73.6242C189.021 73.6242 193.757 75.0169 198.492 75.0169C203.644 75.0169 208.867 75.0169 213.602 75.4811C218.824 75.8791 223.559 76.8075 228.294 77.2717C233.516 78.1339 238.251 78.1338 242.986 79.0623C248.208 79.9908 252.944 81.7815 257.191 82.6437C262.901 84.0364 267.636 84.5007 271.396 85.8272C280.448 88.5463 290.824 85.8271 295.558 78.1339L303.148 66.3952C306.978 60.0948 306.491 60.0947 310.251 54.2584C314.08 48.3559 313.106 47.4937 316.936 41.5912C319.303 38.0098 321.183 33.9644 320.208 30.3168C319.303 26.2712 314.986 24.4805 310.738 22.6235C306.978 21.2971 303.148 18.5779 297.926 16.7873L284.208 12.7416C279.961 11.3489 274.738 10.9511 270.003 9.55836C265.268 8.69619 261.021 6.83915 255.798 5.97698C251.551 5.04849 246.816 4.58426 241.594 4.12001C236.859 3.25784 232.123 3.72205 226.901 3.25781L212.696 1.86513C207.961 1.86513 203.226 1.00293 198.492 1.00293C193.757 1.00293 189.021 1.46722 183.799 1.46722C178.576 1.46722 173.981 1.00293 168.759 1.00293H168.48C163.815 1.46717 158.662 2.32932 153.927 3.25781C148.705 3.72205 143.97 4.5842 139.235 5.51269C134.012 6.44118 129.277 6.83913 124.055 8.23186C119.32 9.09403 114.585 10.4868 109.85 11.8132C105.115 13.6039 99.8925 14.068 95.1575 15.8587C90.4226 17.7157 86.6623 20.8329 82.4148 23.0878C77.6798 24.8785 72.945 27.1333 69.1153 29.4546C64.3803 32.1074 60.62 34.8266 56.7903 38.01C52.5427 40.7291 49.6879 44.3104 46.4152 47.8917C42.5854 51.5393 39.7306 55.1206 36.9453 59.2325C34.0904 63.2781 31.2353 66.8595 29.3553 71.3693C27.4056 75.8791 25.0381 79.9909 24.1329 84.5007C23.158 89.4084 21.7656 93.9183 21.7656 98.8923C21.7656 103.866 23.6455 107.846 24.6204 112.289V112.554C25.0381 116.998 25.5258 121.574 26.988 125.553C28.8681 130.063 31.7227 133.644 34.0902 137.292C36.9451 141.338 38.8253 145.383 42.098 149.031C44.9529 152.148 49.688 153.938 53.5178 156.658C57.2779 159.377 61.1077 161.632 65.3553 163.887C69.6028 166.141 72.9449 168.861 77.6799 170.651C81.9274 172.442 86.6626 173.37 91.3976 174.697C95.6451 176.09 99.4746 178.809 104.21 180.135C108.945 181.462 113.68 181.462 118.415 182.39C122.662 183.319 127.397 184.645 132.132 185.971C136.867 186.9 141.602 187.364 145.85 188.226C150.585 188.691 155.389 190.945 159.637 191.41C164.372 192.338 169.107 192.338 173.842 193.2C178.089 193.665 182.755 195.057 187.977 195.92H188.186C192.364 196.384 197.586 196.384 202.251 197.312C206.986 198.174 211.721 198.639 216.456 199.567C221.191 200.429 225.926 201.358 230.661 202.684C235.396 203.613 239.713 206.332 244.448 207.194C249.183 208.985 253.919 210.377 257.679 212.168C263.876 214.887 268.123 217.606 268.123 220.723C268.123 224.835 264.293 228.417 258.653 231.998C255.311 234.253 251.064 237.436 245.354 239.227C240.688 240.62 235.954 241.482 230.313 242.875H230.174C225.369 243.737 220.286 244.201 214.576 245.129C209.911 245.594 204.688 245.129 199.466 245.129H199.327C194.105 245.594 189.021 245.594 183.799 245.594C178.576 245.594 173.911 245.992 168.759 245.992H168.55L153.927 244.665C148.705 244.201 143.482 244.665 138.747 244.201C133.594 243.737 128.79 241.946 124.055 241.482C118.902 240.62 113.679 240.155 108.945 239.227C103.722 238.365 98.9873 237.9 94.2523 236.574C89.0299 235.181 84.2951 233.391 80.0475 231.998C74.8948 230.207 69.7418 229.345 65.4943 228.019C65.4943 227.952 65.3552 227.952 65.2856 227.886C60.0632 225.697 55.3976 223.907 51.5679 222.116C47.3203 220.325 43.0731 219.861 38.8255 220.723C34.5084 221.652 31.2357 224.371 28.3807 227.952C24.6206 233.391 23.6455 232.927 19.398 238.829C15.1504 244.665 16.0559 245.129 11.8083 250.966C7.97856 256.404 6.58565 255.94 2.82552 261.842C-0.0293893 265.424 -0.516575 269.469 0.458272 273.515C1.36349 277.162 3.24326 281.208 7.56044 283.463C11.3206 285.253 16.5432 286.182 21.7656 288.437L35.4829 293.875C40.1483 295.666 44.3959 298.319 49.0612 300.109C49.1309 300.109 49.27 300.109 49.4093 300.242C54.0746 301.502 59.2276 301.966 64.3803 303.293L79.0726 307.405C83.8075 308.267 88.5424 310.124 93.2773 310.986C98.0123 311.914 103.235 313.241 108.457 314.169C113.192 315.031 118.415 314.634 123.637 315.496C128.372 315.96 133.107 317.286 138.329 317.751C143.482 318.215 148.217 318.679 153.439 318.679C158.662 319.143 163.397 318.215 168.619 318.215C173.842 318.215 178.576 320.006 183.799 320.006C189.021 320.006 193.757 318.215 198.909 318.215C203.644 317.751 208.867 319.143 214.089 318.679C218.824 317.751 224.046 317.286 228.781 316.424C234.004 315.496 238.739 313.705 243.473 312.777C248.208 311.45 253.431 310.986 258.166 309.66C262.901 308.267 268.123 306.94 272.371 305.15C277.106 303.293 280.935 299.711 285.67 297.457C289.918 295.202 294.653 293.875 298.901 291.62C303.148 288.967 307.814 286.248 311.643 283.529C311.713 283.463 311.782 283.463 311.852 283.397C315.543 280.213 318.885 276.234 322.088 273.117C325.431 269.469 328.773 265.888 331.14 261.842C333.995 257.73 335.875 253.221 337.755 249.175C339.635 244.665 342.49 240.62 343.465 235.646C344.37 231.136 345.345 226.162 345.345 221.652C345.345 216.678 343.883 211.704 342.978 207.194Z" fill="black"/>
<path d="M744.267 273.116C740.924 266.75 740.506 266.75 737.164 260.449C733.822 254.613 732.429 255.011 729.087 248.71C727.23 244.51 725.187 240.31 722.959 236.11C720.592 232.462 718.224 228.88 713.976 227.488C710.147 226.161 705.412 226.161 701.164 227.952C696.429 229.743 692.599 232.462 687.864 233.855C683.129 235.181 677.977 234.717 673.242 236.11L658.967 238.829C654.232 239.691 649.497 239.691 644.762 240.619L630.14 241.946H630C625.335 241.946 620.6 242.41 615.865 242.41C610.713 242.41 606.047 243.339 600.964 243.339H600.546C595.881 242.808 590.867 240.686 586.272 239.757C586.132 239.691 585.993 239.691 585.923 239.691C581.119 239.226 576.036 239.691 570.883 238.829C566.218 237.9 561.482 236.574 556.817 235.247C556.747 235.181 556.678 235.181 556.608 235.181C551.873 234.252 546.72 233.855 541.985 231.998C537.25 230.671 532.516 228.881 527.781 227.09L514.063 221.718C514.063 221.718 513.994 221.652 513.924 221.652C509.259 219.397 505.011 217.142 500.763 214.423C496.516 212.168 492.686 208.984 488.926 205.867C485.096 203.148 480.849 200.429 477.507 196.848C473.747 193.2 471.379 189.154 468.524 185.109C466.156 181.063 464.764 176.554 463.301 172.044C461.909 167.534 459.541 163.422 459.541 158.448C459.541 153.474 460.516 149.03 462.396 144.454C463.789 139.945 466.156 135.899 469.011 131.853C471.379 127.874 473.677 123.431 477.019 119.783C477.089 119.717 477.158 119.65 477.228 119.518C480.501 116.467 485.166 114.212 489.413 111.095C493.174 108.376 496.934 105.657 501.738 103.004C505.499 100.749 509.746 97.5656 513.994 95.3106C518.729 93.52 523.046 90.8008 527.781 89.0101C532.028 87.1531 537.668 87.6174 542.403 86.3573C542.403 86.291 542.543 86.2911 542.612 86.2247C547.278 84.5004 551.943 83.1076 556.608 81.7812H556.748C561.483 80.8527 566.218 79.5264 571.37 78.5979C576.105 77.6694 580.84 77.2714 586.063 76.8071C590.798 75.8786 595.95 75.4808 600.755 75.4808C605.908 75.0166 610.643 74.5522 615.865 74.5522C620.6 74.5522 625.335 73.6237 630.07 74.0879C635.292 74.5522 640.027 75.8788 644.762 76.343C649.497 76.8073 654.72 76.3429 659.455 77.2714C664.19 78.1336 668.437 79.5263 673.172 80.3885H673.312L687.447 84.5003C692.182 85.8268 696.429 87.6176 700.677 89.4082C704.924 90.8009 709.659 90.3365 713.976 89.0101C718.224 87.6174 721.079 84.5004 723.446 80.8528C726.301 74.5523 727.694 75.0166 731.036 68.6498L737.651 56.513C740.924 50.2125 739.532 49.2842 742.874 43.3816C744.754 39.3361 744.267 35.7547 742.874 31.7091C741.899 28.0615 740.019 24.4802 735.771 22.6232C731.036 20.8326 725.814 19.9704 721.079 18.1135C716.414 16.787 711.679 14.9962 706.457 13.2056H706.317L691.764 9.09374H691.625C686.96 8.23157 682.224 6.83882 677.002 5.97666C671.849 5.04817 667.114 3.72168 661.962 2.79319H661.683C656.53 2.32894 651.447 2.32905 646.642 1.8648C641.559 1.46688 636.406 0.538464 631.184 0.0742188H630.906C625.753 0.0742188 621.088 1.0026 615.865 1.0026C611.13 1.0026 605.908 0.538358 601.173 1.0026C596.438 1.0026 591.703 1.46688 586.968 1.8648L572.763 3.25748C568.028 4.11965 563.293 3.72181 558.558 4.58398C553.893 5.51247 549.715 7.701 544.98 9.09374C544.91 9.09374 544.84 9.0938 544.701 9.16012C540.036 10.0223 535.371 10.4864 530.775 11.3486C530.775 11.3486 530.636 11.3487 530.566 11.415C525.762 12.7414 521.096 13.6036 516.848 14.9964C512.113 16.3228 507.866 17.7155 503.131 19.5061C498.884 21.2968 494.566 24.0158 490.319 25.8065C486.071 27.5971 481.336 28.5256 477.089 30.7805C472.772 32.5712 469.499 36.2189 465.251 38.4738C460.934 40.7287 457.174 42.9837 453.344 45.6365C449.166 48.3557 444.919 50.2125 441.228 52.7991C441.159 52.8654 441.089 52.9318 441.019 52.9318C437.189 56.1152 433.986 59.2985 430.644 62.3493C426.814 65.5326 423.542 68.6497 420.199 71.8331C417.344 75.4807 413.097 78.1335 410.242 81.7812C407.457 85.3625 405.089 89.4082 402.235 93.5201C399.867 97.1014 398.892 101.611 396.525 105.657C394.714 110.1 391.859 113.748 389.979 117.661C389.979 117.793 389.909 117.926 389.84 118.059C388.447 122.502 388.029 126.946 387.054 131.389C386.08 135.899 385.175 140.409 384.687 144.919C384.2 149.428 383.294 153.938 383.294 158.448C383.294 162.958 383.294 167.534 383.712 172.044C384.2 176.554 384.687 181.063 386.08 185.573C387.055 190.083 388.935 194.129 390.397 198.638C392.277 202.684 393.67 207.194 396.037 211.239C397.917 215.351 400.772 218.932 403.139 222.978C405.507 227.024 407.387 231.003 410.172 235.048C410.242 235.048 410.312 235.247 410.381 235.314C413.236 238.431 417.414 241.15 420.687 244.665C423.542 247.848 427.302 250.899 431.062 254.082C431.131 254.082 431.201 254.082 431.201 254.215C434.404 257.266 437.19 260.847 440.462 263.964C440.602 264.03 440.671 264.163 440.81 264.229L452.369 272.122C452.369 272.122 452.509 272.188 452.509 272.254C456.269 274.509 461.004 276.233 465.251 278.488C469.011 280.743 473.259 282.998 477.437 284.789C477.507 284.789 477.576 284.789 477.576 284.789C481.893 287.11 485.653 289.697 490.319 291.554C494.566 293.344 499.301 294.671 503.619 296.063C507.866 297.854 512.113 300.109 516.848 301.435C521.096 302.828 526.319 303.226 531.054 304.619C535.371 305.481 539.618 307.802 544.353 308.664C549.088 309.593 553.823 310.919 558.558 311.848C563.223 312.71 567.958 312.312 572.624 312.71C572.693 312.71 572.833 312.71 572.972 312.776C577.637 313.705 582.303 315.429 586.968 315.893C591.703 316.358 596.438 314.965 601.66 314.965C606.395 314.965 611.13 315.893 615.865 315.893C621.088 315.893 625.823 315.429 631.045 315.429C636.267 314.965 641.49 314.965 646.225 314.567C651.447 314.103 656.6 314.103 661.822 313.174C667.045 312.71 671.78 310.919 677.002 310.057C681.737 309.129 686.959 308.664 691.694 307.338C696.917 306.409 701.652 305.083 706.874 303.69C711.609 301.9 716.692 300.971 721.427 299.711C721.497 299.711 721.567 299.711 721.636 299.578C726.371 297.854 731.106 295.599 735.771 293.808C740.019 291.951 743.779 289.299 745.241 285.651C746.634 281.606 746.147 276.631 744.267 273.05V273.116Z" fill="black"/>
<path d="M1618.43 255.939C1617.03 251.894 1614.18 248.246 1610.42 244.665C1607.08 241.481 1601.85 241.946 1596.63 241.946C1591.41 242.41 1586.26 241.945 1581.52 242.874C1576.72 243.736 1571.08 245.129 1564.88 244.665C1559.73 244.665 1553.53 243.736 1548.31 242.41C1542.67 241.083 1536.96 238.828 1532.71 236.573C1528.39 234.252 1527 230.207 1527.97 227.09C1528.39 223.906 1531.73 221.651 1535.56 219.396C1539.32 217.141 1542.67 213.494 1546.91 209.913C1550.19 207.193 1554.43 204.541 1558.19 200.959C1558.19 200.959 1558.33 200.893 1558.33 200.827C1561.68 197.245 1564.53 193.664 1567.73 189.618C1570.59 185.971 1572.96 181.925 1575.32 177.415C1577.69 173.37 1579.57 169.324 1581.52 164.815C1583.4 160.371 1586.6 156.325 1588.14 151.816C1588.14 151.816 1588.14 151.617 1588.21 151.55L1590.99 137.424V137.159C1591.41 132.649 1589.53 127.741 1589.53 122.833C1589.53 118.324 1590.02 113.814 1589.04 109.768C1588.62 105.325 1588.14 100.815 1587.23 96.3716C1587.16 96.3053 1587.16 96.2389 1587.16 96.1062C1585.77 91.5964 1584.31 87.6172 1582.43 83.1074C1580.55 79.0619 1578.25 75.0827 1575.88 70.9708C1575.88 70.9708 1575.86 70.9265 1575.81 70.8381C1573.44 67.2567 1570.59 63.7418 1567.73 60.0941C1564.88 56.5128 1562.51 52.4009 1558.75 49.2838C1555.9 46.1004 1551.65 43.3814 1547.82 40.2643C1544.55 37.5452 1540.72 34.826 1536.47 32.1068C1532.71 29.8519 1528.88 26.7349 1524.63 24.48C1520.87 22.623 1516.14 20.8322 1511.82 18.5773C1507.57 16.7867 1502.84 15.8582 1498.59 14.0676C1493.85 12.7412 1489.61 11.3484 1484.87 10.4862C1480.14 9.09346 1475.82 7.76712 1471.08 6.83863C1466.35 5.97646 1462.1 4.11948 1456.88 3.72155C1452.63 2.79306 1447.41 3.25721 1442.67 2.79297C1438.01 2.32872 1433.27 2.32883 1428.54 1.86458H1400.06C1392.96 1.86458 1392.96 1.00238 1385.79 1.00238C1379.17 1.00238 1379.17 0.538086 1372.07 0.538086H1357.86C1350.76 0.538086 1350.76 1.86458 1343.66 1.86458C1336.56 1.86458 1336.56 1.00238 1329.45 1.00238H1287.26C1282.52 1.00238 1277.79 2.32874 1274.93 5.51214C1272.15 8.23129 1269.78 12.7412 1269.78 17.251C1269.78 24.0157 1271.17 24.0156 1271.17 31.2446V45.2384C1271.17 52.401 1271.66 52.4009 1271.66 59.6299C1271.66 66.8588 1270.2 66.8589 1270.2 73.6236C1270.2 80.8526 1270.68 80.8525 1270.68 88.0815V102.075C1270.68 109.304 1271.17 109.304 1271.17 116.533C1271.17 123.298 1269.78 123.298 1269.78 130.527C1269.78 137.756 1270.68 137.689 1270.68 144.918C1270.68 151.683 1271.17 151.683 1271.17 158.912C1271.17 166.141 1269.78 166.141 1269.78 173.37C1269.78 180.135 1271.66 180.135 1271.66 187.364C1271.66 194.593 1271.17 194.592 1271.17 201.821C1271.17 208.586 1271.66 208.586 1271.66 215.815C1271.66 223.044 1270.2 222.978 1270.2 230.207V258.658C1270.2 265.423 1271.66 265.423 1271.66 272.652C1271.66 279.881 1270.68 279.881 1270.68 287.11V301.037C1270.68 305.414 1272.08 309.46 1274.72 312.577C1274.86 312.71 1275.07 312.842 1275.21 312.975C1278.48 315.495 1282.66 315.959 1287.26 315.959C1294.36 315.959 1294.36 317.75 1301.95 317.75H1316.64C1323.74 317.75 1323.74 315.959 1331.33 315.959C1335.58 315.959 1340.32 315.495 1343.17 312.776C1346.03 309.659 1347.91 305.547 1347.91 301.037V287.508C1347.91 280.743 1347 280.743 1347 274.443C1347 267.678 1347.91 267.678 1347.91 260.913C1347.91 256.403 1349.37 252.358 1352.64 249.639C1355.5 246.919 1359.74 245.129 1364.06 245.129H1380.63C1389.13 245.129 1389.13 244.2 1397.69 244.2C1401.94 244.2 1407.16 245.593 1412.8 247.384C1417.12 248.71 1420.81 252.292 1425.48 254.944C1425.61 254.944 1425.68 254.944 1425.75 255.077C1429.93 256.868 1435.09 258.658 1439.26 260.847C1439.33 260.913 1439.4 260.913 1439.47 260.98C1443.72 263.699 1447.48 266.749 1452.14 269.469C1455.97 271.724 1460.71 273.978 1464.96 276.698L1477.77 284.789C1482.02 287.11 1486.26 290.227 1490.51 292.482C1494.76 295.201 1498.59 298.384 1503.32 300.639C1507.57 302.894 1512.79 304.685 1517.04 306.475C1521.78 308.266 1526.44 310.919 1531.11 312.71C1531.25 312.776 1531.32 312.776 1531.39 312.842C1536.12 314.169 1541.27 314.633 1545.94 315.495C1551.16 316.424 1556.38 316.888 1561.12 316.888C1566.34 316.888 1571.08 316.424 1575.32 315.495C1580.55 314.633 1585.28 314.169 1589.53 312.378C1594.26 310.521 1598.09 307.404 1601.85 304.685C1605.68 301.966 1608.96 298.384 1611.81 294.737C1614.67 291.155 1616.06 287.11 1617.52 282.6C1619.4 278.488 1622.26 273.978 1622.26 269.469C1622.26 264.959 1620.31 260.449 1618.43 255.939ZM1511.4 137.689C1509.94 142.199 1505.69 145.847 1501.86 149.428C1498.59 152.612 1495.25 156.657 1490.51 159.376C1486.26 161.631 1481.04 162.958 1475.82 164.815C1471.08 166.141 1466.35 167.932 1460.71 168.86C1455.97 169.789 1450.75 168.86 1445.04 169.789C1440.31 170.187 1435.08 171.115 1429.86 171.115C1424.64 171.579 1419.49 171.115 1414.26 171.115C1405.7 171.115 1405.7 172.441 1397.69 172.441C1389.13 172.441 1389.13 171.579 1380.63 171.579C1372.14 171.579 1372.56 172.044 1364.06 172.044C1359.88 172.044 1355.22 170.253 1352.36 167.733C1352.22 167.6 1352.08 167.467 1352.01 167.335C1349.37 164.218 1348.39 160.238 1348.39 155.795V129.598C1348.39 123.298 1347 123.298 1347 116.533C1347 110.166 1347.91 110.166 1347.91 103.402V90.3364C1347.91 85.8266 1349.79 82.2452 1352.64 79.5261C1355.5 76.3427 1359.74 74.552 1364.06 74.552C1372.56 74.552 1372.56 75.4806 1380.63 75.4806H1397.69C1405.7 75.4806 1405.7 74.0877 1414.26 74.0877H1429.93C1435.08 74.552 1440.24 74.5521 1445.39 75.0163H1445.67C1450.89 75.9448 1456.04 77.6692 1460.71 78.5977C1465.86 79.5262 1471.08 80.3882 1475.82 81.7809C1481.04 83.1074 1485.78 85.3623 1490.02 87.6172C1494.76 90.3363 1499.49 92.5913 1502.84 95.7747C1506.67 99.356 1508.55 104.33 1510.43 108.84C1511.82 113.35 1513.77 117.859 1513.77 122.833C1513.77 128.272 1513.28 133.18 1511.4 137.689Z" fill="black"/>
<path d="M2001.26 305.149C1996.04 300.175 1997.01 298.783 1992.28 293.875C1987.06 288.901 1987.06 288.436 1981.84 283.462C1977.1 278.488 1975.71 279.417 1970.97 273.979C1965.75 269.005 1966.73 268.142 1961.5 263.168C1956.28 257.73 1955.31 258.659 1950.57 253.22L1940.2 243.339C1936.71 239.713 1933.23 236.242 1929.75 232.926L1919.37 223.044C1919.37 223.044 1919.31 222.978 1919.24 222.912C1916.13 219.375 1912.83 215.948 1909.35 212.632C1904.13 207.194 1904.13 207.658 1898.97 202.22C1893.75 197.312 1894.66 196.383 1889.5 191.409C1884.28 185.971 1884.28 186.435 1879.06 181.063C1873.84 176.089 1873.35 176.554 1868.13 171.579C1862.9 166.141 1862.9 166.605 1857.75 161.167C1852.53 156.193 1853.02 155.795 1847.79 150.821C1844.45 147.638 1842.08 143.592 1842.57 139.547C1842.57 135.435 1845.91 132.318 1849.19 129.134C1854.9 124.624 1853.92 123.298 1859.63 118.324C1864.85 113.35 1865.76 114.278 1871.47 109.304C1877.18 104.33 1877.6 104.794 1882.82 99.8204C1888.53 95.3106 1888.04 94.8464 1893.75 89.8723C1899.39 84.8982 1899.88 85.3625 1905.59 80.3885C1911.23 75.4808 1910.32 75.0165 1916.03 70.0425C1921.67 65.0684 1921.19 64.6041 1926.41 59.6301C1932.12 54.7223 1932.61 55.1204 1937.83 50.2127C1943.47 45.2386 1944.44 45.6366 1949.67 41.1267C1955.31 36.219 1955.79 36.2189 1961.5 31.7091L1972.85 21.761C1977.17 17.9807 1977.66 16.8533 1980.16 14.3331C1987.96 6.37464 1985.04 0.471965 1973.62 1.13517C1971.46 1.26781 1969.86 1.4669 1965.75 1.4669H1952.03C1945.35 1.4669 1945.35 0.53831 1938.73 0.53831C1931.63 0.53831 1931.63 1.4669 1925.02 1.4669C1918.4 1.4669 1918.4 0.53831 1911.72 0.53831H1898C1893.26 0.53831 1887.55 1.00258 1882.33 3.25748C1877.18 5.04814 1872.86 8.69584 1869.59 11.8129C1863.88 16.3227 1864.37 16.3227 1858.66 21.2967C1853.43 25.8065 1853.02 25.3424 1847.79 30.3164C1842.08 34.8262 1842.08 34.3619 1836.37 39.336C1831.22 43.8458 1830.73 43.8459 1825.51 48.3557C1822.03 51.6717 1818.41 54.833 1814.65 57.8395C1809.43 62.8135 1810.33 63.7421 1804.69 68.2519C1799.47 73.1596 1798.49 72.2973 1793.27 76.8071L1782.97 86.689C1782.97 86.689 1782.9 86.7553 1782.83 86.8216C1777.19 91.2651 1777.67 91.6631 1772.45 96.2392C1766.74 101.147 1766.25 100.749 1760.61 105.259L1749.68 114.676C1743.07 120.579 1738.33 118.324 1738.33 109.769C1738.33 103.402 1737.36 103.402 1737.36 96.6371C1737.36 89.8724 1736.94 89.8724 1736.94 83.1077V70.0425C1736.94 63.2778 1737.36 63.2777 1737.36 56.513C1737.36 49.7483 1738.82 49.7484 1738.82 43.3816C1738.82 36.6169 1737.84 36.6169 1737.84 29.8521C1737.84 23.0874 1738.82 23.0874 1738.82 16.787C1738.82 12.2772 1736.45 8.23166 1733.6 5.04827C1730.74 2.32912 1726.01 1.0026 1721.76 1.0026C1714.17 1.0026 1714.17 0.0742188 1707.07 0.0742188C1699.48 0.0742188 1699.48 0.53831 1692.38 0.53831C1684.79 0.53831 1684.79 1.4669 1677.68 1.4669C1673.37 1.4669 1670.23 2.99218 1667.59 5.31341C1663.9 8.56312 1662.15 13.272 1662.09 18.0471C1662.02 23.618 1661.11 24.0158 1661.11 30.7805C1661.11 38.0095 1662.09 38.0096 1662.09 44.7743C1662.09 52.0033 1660.14 52.0032 1660.14 59.2322C1660.14 66.4611 1661.6 66.3948 1661.6 73.1596V87.6174C1661.6 94.8464 1662.09 94.8465 1662.09 101.611C1662.09 108.84 1661.11 108.84 1661.11 116.069C1661.11 122.834 1662.09 122.834 1662.09 130.063C1662.09 137.292 1661.6 137.292 1661.6 144.454C1661.6 151.617 1660.62 151.285 1660.62 158.448C1660.62 165.611 1662.09 165.677 1662.09 172.906C1662.09 179.671 1661.6 179.671 1661.6 186.9V201.357C1661.6 208.122 1661.11 208.122 1661.11 215.351C1661.11 222.58 1660.14 222.58 1660.14 229.743C1660.14 236.905 1660.62 236.574 1660.62 243.736V272.188C1660.62 279.417 1660.14 279.417 1660.14 286.646V300.639C1660.14 305.149 1662.5 309.659 1665.36 312.378C1668.7 315.031 1672.95 317.286 1677.68 317.286C1684.79 317.286 1684.79 316.888 1692.38 316.888C1699.48 316.888 1699.48 316.424 1707.07 316.424C1714.17 316.424 1714.17 315.495 1721.76 315.495C1726.01 315.495 1729.84 314.633 1733.11 311.45C1735.96 308.731 1737.36 305.149 1737.36 300.639C1737.36 293.411 1738.82 293.411 1738.82 285.717C1738.82 278.024 1737.84 278.024 1737.84 270.862V255.475C1737.84 248.246 1738.82 248.246 1738.82 240.619C1738.82 236.11 1739.79 231.135 1742.09 226.626C1744.46 221.652 1747.31 217.606 1750.66 214.887C1753.49 212.19 1756.32 209.625 1759.15 207.194C1761.98 204.762 1764.84 202.22 1767.72 199.567C1771.06 196.383 1775.31 194.593 1779.55 195.057C1783.8 195.057 1788.05 196.848 1790.9 199.965L1801.35 210.841C1806.57 215.815 1807.06 215.351 1812.21 220.723C1817.43 225.697 1816.53 226.626 1822.17 231.6C1827.39 236.972 1827.88 236.574 1833.1 241.946C1838.32 246.92 1837.84 246.92 1843.06 252.358C1848.28 257.266 1849.19 256.868 1854.41 262.24C1859.63 267.678 1859.14 267.678 1864.37 273.116L1874.81 283.927C1878.25 287.243 1881.7 290.691 1885.19 294.273C1888.67 297.589 1892.15 301.06 1895.63 304.685C1898.97 307.869 1903.71 310.123 1908.44 312.378C1913.6 314.633 1918.82 316.424 1923.55 316.424C1930.73 316.424 1930.73 315.96 1938.25 315.96C1945.35 315.96 1945.35 316.424 1952.94 316.424H1967.14C1974.73 316.424 1974.73 315.495 1981.84 315.495C1989.42 315.495 1989.42 316.888 1996.53 316.888C2006 316.888 2007.46 311.45 2001.26 305.149Z" fill="black"/>
<path d="M1222.99 118.656C1217.49 109.039 1213.73 107.646 1211.71 106.85C1210.8 106.519 1208.5 106.718 1208.22 106.718H1187.33C1183.99 106.718 1177.38 106.055 1174.1 106.055C1170.34 106.055 1162.75 106.652 1158.92 106.718C1155.1 106.851 1147.3 107.381 1143.4 107.381C1139.5 107.381 1132.12 106.917 1128.36 106.718C1125.5 106.585 1119.86 106.121 1117.08 106.055C1113.52 106.055 1106.42 106.652 1102.87 106.718C1099.39 106.851 1088.94 106.718 1088.94 106.718C1088.18 106.718 1085.25 105.391 1084.91 104.795C1082.33 100.086 1082.26 101.412 1080.59 98.7593C1077.8 92.5915 1078.29 92.5917 1075.44 86.2912C1072.65 80.3887 1071.68 80.8528 1068.82 75.0166C1065.55 69.1141 1065.97 68.6499 1063.18 62.8136C1060.33 57.0437 1060.81 56.5131 1058.03 50.6768V50.5443C1054.62 44.7744 1054.13 44.7743 1050.86 38.8718C1048 33.0355 1047.03 33.4998 1043.82 27.6635C1043.82 27.6635 1043.82 27.5973 1043.82 27.531L1038.11 15.4606C1036.23 11.3487 1032.89 7.76736 1028.64 5.51246C1026.28 3.7218 1022.93 1.86487 1020.08 1.0027C1018.69 -0.390034 1016.32 0.0743162 1015.34 0.0743162H985.541C978.439 0.0743162 978.439 0.538407 970.849 0.538407C965.139 0.538407 963.746 0.0743162 959.917 0.0743162C959.011 0.0743162 954.277 -0.390034 949.959 1.0027C947.174 1.86487 944.319 2.79342 941.952 4.58408C937.634 6.83898 934.362 10.9509 932.482 14.9965C929.627 20.8327 929.139 20.3683 926.284 26.2709L919.67 37.5455C916.815 43.3817 918.277 43.8459 915.422 49.7485C912.567 55.5847 910.687 54.7225 907.832 60.0945C904.977 65.997 905.952 66.3949 903.097 72.2975C900.242 78.1337 900.73 78.1336 897.875 84.0361L892.165 95.775C890.563 98.4279 890.006 99.4891 887.43 104.132C887.082 104.795 884.157 106.121 883.391 106.121C883.391 106.121 872.946 106.121 869.465 106.121C865.914 106.055 858.811 105.458 855.26 105.458C852.475 105.458 846.835 105.988 843.98 106.121C840.22 106.32 832.699 106.784 828.939 106.784C825.179 106.784 817.241 106.187 813.411 106.121C809.581 106.055 802.061 105.458 798.231 105.458C794.959 105.458 788.344 106.121 785.001 106.121H764.112C764.112 106.121 761.535 105.922 760.63 106.254C758.611 107.049 754.851 108.442 749.35 117.993C744.893 125.619 743.64 129.864 746.564 133.246L755.338 143.194L759.934 147.704L765.644 154.933L770.239 160.769L777.481 168.33L783.47 176.686L791.129 183.849L802.27 194.991L810.626 205.934L824.9 222.116C824.9 222.116 825.04 222.514 824.97 222.713C823.647 226.095 823.299 229.411 821.14 232.926L815.43 244.201C812.575 250.103 811.183 249.639 808.328 255.475C805.473 260.913 806.448 261.378 803.593 267.214C800.738 273.117 801.225 273.117 798.37 278.953L792.73 290.691C789.875 296.528 788.901 296.13 786.046 301.966C784.166 305.547 783.191 309.659 785.141 312.378C786.533 314.633 790.781 315.496 795.516 315.496C801.713 315.496 801.713 316.424 808.328 316.424C814.943 316.424 814.943 316.888 821.628 316.888C828.312 316.888 828.243 315.96 834.858 315.96C841.473 315.96 841.473 316.424 847.67 316.424C852.405 316.424 857.627 315.031 861.875 312.378C866.122 309.659 869.465 305.547 871.833 301.966C874.2 296.594 874.687 296.528 877.473 291.222V291.089C879.84 285.717 879.422 285.718 882.208 280.279C883.786 276.698 885.527 273.094 887.43 269.469C889.38 265.888 893.14 261.842 897.387 259.521C901.635 256.868 906.857 256.868 911.592 256.868H924.892C931.507 256.868 931.507 255.475 938.122 255.475H964.652C971.336 255.475 971.336 254.613 977.952 254.613C984.567 254.613 984.566 255.011 991.181 255.011H1004.48C1011.1 255.011 1011.1 255.475 1017.71 255.475C1024.33 255.475 1024.4 255.939 1031.01 255.939C1037.63 255.939 1037.63 255.011 1044.24 255.011C1050.86 255.011 1050.93 256.404 1057.54 256.404C1062.28 256.404 1067.01 257.73 1071.26 259.985C1075.51 262.704 1080.31 265.423 1082.19 269.469C1085.05 274.907 1083.1 275.371 1085.95 280.743C1088.32 286.182 1088.81 285.717 1091.66 291.089C1091.66 291.089 1091.73 291.222 1091.73 291.288C1094.03 296.528 1093.54 297.058 1096.4 302.43C1098.28 306.012 1103.5 308.266 1107.75 310.986C1111.99 313.705 1116.31 315.031 1121.05 315.031C1127.17 315.031 1127.17 316.888 1133.79 316.888C1140.4 316.888 1140.47 316.424 1147.09 316.424H1173.13C1177.86 316.424 1180.72 314.169 1182.6 311.45C1184.06 309.195 1185.45 305.149 1183.57 301.037C1180.23 295.201 1180.23 295.666 1177.38 289.365C1174.1 283.463 1174.52 283.462 1171.74 277.626C1168.39 271.259 1168.39 271.724 1165.54 265.423C1162.27 259.521 1161.78 259.985 1158.92 253.685C1156.07 247.848 1154.68 245.461 1153.21 241.482C1152.52 239.558 1152.03 235.446 1151.27 233.523C1149.73 229.743 1148.76 226.758 1147.44 223.376C1147.37 223.111 1147.37 222.912 1147.44 222.713L1161.71 206.53L1170.07 195.654L1181.21 184.446L1188.87 177.283L1194.85 168.993L1202.1 161.432L1206.69 155.53L1212.47 148.301L1217 143.858L1225.77 133.843C1228.7 130.461 1227.44 126.282 1222.99 118.656ZM1099.74 162.427L1093.4 169.457L1085.81 178.477L1074.6 190.282C1074.6 190.282 1073.83 190.68 1073.42 190.68L1064.64 191.343L1053.01 190.68L1039.16 191.343L1023.98 190.68C1023 190.945 1021.89 191.144 1020.57 191.144H1006.36L994.802 190.083C987.7 190.083 987.7 189.221 980.598 189.221C973.008 189.221 973.007 190.547 965.905 190.547H951.7C950.377 190.547 949.263 190.348 948.288 190.083C947.313 189.818 933.109 190.746 933.109 190.746L919.252 190.083L907.623 190.746L898.849 190.083C898.432 190.083 898.014 189.95 897.666 189.685L886.455 177.88L878.865 168.86L872.529 161.83C871.066 160.769 871.902 158.514 873.782 158.514L887.151 157.851L898.223 158.514L912.706 157.851L927.399 158.514H942.35C943.603 158.514 946.408 154.8 947.174 153.341C950.516 146.975 949.89 149.428 952.745 143.128C956.087 136.827 954.694 136.363 957.967 130.063C961.31 123.762 963.189 124.624 966.044 118.324C969.317 112.024 968.412 111.095 971.267 104.795C974.539 98.4278 974.052 98.4277 977.394 92.1273C981.154 84.0361 989.719 84.0361 993.479 92.1273C996.822 98.4277 994.942 98.8921 997.796 105.259C1001.07 111.559 1001.56 111.559 1004.41 117.86C1007.75 124.16 1009.15 123.298 1012.42 129.599C1015.76 135.899 1015.48 136.297 1018.62 142.664C1021.68 148.964 1020.84 149.097 1023.84 155.331C1024.12 155.861 1024.4 157.122 1024.95 157.453C1025.37 157.652 1026.42 157.453 1026.83 157.453C1029.27 157.453 1034.07 157.52 1036.51 157.453C1039.65 157.321 1045.91 156.724 1049.05 156.79C1049.05 156.79 1056.91 158.183 1059.56 158.448C1063.18 158.846 1074.04 159.111 1074.04 159.111L1085.11 158.448L1098.55 159.111C1100.36 159.111 1101.2 161.366 1099.74 162.427Z" fill="black"/>
</svg>
